# xmcd
#
# Track frame offsets:
#	150
#	20507
#	34930
#	52470
#	72534
#	91343
#	107721
#	123269
#	138496
#	156988
#	174869
#	188295
#	206887
#	224347
#	238506
#	251590
#	269006
#
# Disc length: 3841 seconds
#
# Revision: 0
# Processed by: cddbd v1.4PL0 Copyright (c) Steve Scherf et al.
# Submitted via: dBpowerAMP V4.0
#
DISCID=010eff11
DTITLE=Yoram Gaon - Haosef 4
DYEAR=1900
DGENRE=
TTITLE0=Elef neshikot
TTITLE1=Habiti mi hazar
TTITLE2=Dadu
TTITLE3=Veulay ota shtika
TTITLE4=Agan hayam hatichon
TTITLE5=Michtav shel stav
TTITLE6=Levavtini
TTITLE7=Meofek leofek
TTITLE8=Nigun atik
TTITLE9=Madua li
TTITLE10=Dyokan imi
TTITLE11=Ken Ken
TTITLE12=Layla tov laahava
TTITLE13=Layla bahir
TTITLE14=Aviv balev
TTITLE15=Hachnisini tahat knafech
TTITLE16=Haver
EXTD=
EXTT0=
EXTT1=
EXTT2=
EXTT3=
EXTT4=
EXTT5=
EXTT6=
EXTT7=
EXTT8=
EXTT9=
EXTT10=
EXTT11=
EXTT12=
EXTT13=
EXTT14=
EXTT15=
EXTT16=
PLAYORDER=
